<mxfile host="app.diagrams.net" agent="Mozilla/5.0 (Windows NT 10.0; Win64; x64) AppleWebKit/537.36 (KHTML, like Gecko) Chrome/122.0.0.0 Safari/537.36" version="24.8.4">
  <diagram name="Page-1" id="js-JORSwDeCTtrG_aufr">
    <mxGraphModel dx="1533" dy="1509" grid="1" gridSize="10" guides="1" tooltips="1" connect="1" arrows="1" fold="1" page="1" pageScale="1" pageWidth="850" pageHeight="1100" math="0" shadow="0">
      <root>
        <mxCell id="0" />
        <mxCell id="1" parent="0" />
        <mxCell id="SvQYntT_slhw4JaxMj-Q-137" value="" style="rounded=1;whiteSpace=wrap;html=1;absoluteArcSize=1;arcSize=14;strokeWidth=2;fillColor=none;dashed=1;" parent="1" vertex="1">
          <mxGeometry x="-500" y="520" width="980" height="702.5" as="geometry" />
        </mxCell>
        <mxCell id="SvQYntT_slhw4JaxMj-Q-130" value="" style="shape=internalStorage;whiteSpace=wrap;html=1;backgroundOutline=1;" parent="1" vertex="1">
          <mxGeometry x="-430" y="-127.5" width="170" height="340" as="geometry" />
        </mxCell>
        <mxCell id="SvQYntT_slhw4JaxMj-Q-131" value="&lt;font size=&quot;1&quot; style=&quot;&quot;&gt;&lt;b style=&quot;&quot;&gt;&lt;span style=&quot;font-size: 16px;&quot;&gt;Legend&lt;/span&gt;&lt;/b&gt;&lt;/font&gt;" style="text;html=1;align=center;verticalAlign=middle;resizable=0;points=[];autosize=1;strokeColor=none;fillColor=none;" parent="1" vertex="1">
          <mxGeometry x="-410" y="-132.5" width="80" height="30" as="geometry" />
        </mxCell>
        <mxCell id="SvQYntT_slhw4JaxMj-Q-129" value="" style="shape=internalStorage;whiteSpace=wrap;html=1;backgroundOutline=1;" parent="1" vertex="1">
          <mxGeometry x="620" y="-140" width="170" height="260" as="geometry" />
        </mxCell>
        <mxCell id="SvQYntT_slhw4JaxMj-Q-13" style="edgeStyle=orthogonalEdgeStyle;rounded=0;orthogonalLoop=1;jettySize=auto;html=1;exitX=0.5;exitY=1;exitDx=0;exitDy=0;entryX=0.5;entryY=0;entryDx=0;entryDy=0;" parent="1" source="SvQYntT_slhw4JaxMj-Q-2" target="SvQYntT_slhw4JaxMj-Q-11" edge="1">
          <mxGeometry relative="1" as="geometry">
            <Array as="points">
              <mxPoint x="100" y="-35" />
              <mxPoint x="100" />
              <mxPoint />
            </Array>
          </mxGeometry>
        </mxCell>
        <mxCell id="SvQYntT_slhw4JaxMj-Q-14" value="&quot;velocity&quot;" style="edgeLabel;html=1;align=center;verticalAlign=middle;resizable=0;points=[];" parent="SvQYntT_slhw4JaxMj-Q-13" vertex="1" connectable="0">
          <mxGeometry x="-0.0152" y="-2" relative="1" as="geometry">
            <mxPoint as="offset" />
          </mxGeometry>
        </mxCell>
        <mxCell id="SvQYntT_slhw4JaxMj-Q-50" style="edgeStyle=orthogonalEdgeStyle;rounded=0;orthogonalLoop=1;jettySize=auto;html=1;exitX=0.5;exitY=0;exitDx=0;exitDy=0;entryX=0.5;entryY=1;entryDx=0;entryDy=0;" parent="1" source="SvQYntT_slhw4JaxMj-Q-2" target="SvQYntT_slhw4JaxMj-Q-18" edge="1">
          <mxGeometry relative="1" as="geometry" />
        </mxCell>
        <mxCell id="SvQYntT_slhw4JaxMj-Q-67" style="edgeStyle=orthogonalEdgeStyle;rounded=0;orthogonalLoop=1;jettySize=auto;html=1;exitX=0.5;exitY=1;exitDx=0;exitDy=0;entryX=0;entryY=0.5;entryDx=0;entryDy=0;" parent="1" edge="1">
          <mxGeometry relative="1" as="geometry">
            <mxPoint x="115" y="-35" as="sourcePoint" />
            <mxPoint x="220" y="235" as="targetPoint" />
            <Array as="points">
              <mxPoint x="130" y="-35" />
              <mxPoint x="130" y="235" />
            </Array>
          </mxGeometry>
        </mxCell>
        <mxCell id="SvQYntT_slhw4JaxMj-Q-68" value="(y, z)" style="edgeLabel;html=1;align=center;verticalAlign=middle;resizable=0;points=[];" parent="SvQYntT_slhw4JaxMj-Q-67" vertex="1" connectable="0">
          <mxGeometry x="0.7423" relative="1" as="geometry">
            <mxPoint as="offset" />
          </mxGeometry>
        </mxCell>
        <mxCell id="pFv_5wyaezQBT4WOw5hq-5" style="edgeStyle=orthogonalEdgeStyle;rounded=0;orthogonalLoop=1;jettySize=auto;html=1;exitX=1;exitY=0.75;exitDx=0;exitDy=0;entryX=0;entryY=0.5;entryDx=0;entryDy=0;" edge="1" parent="1" source="SvQYntT_slhw4JaxMj-Q-2" target="pFv_5wyaezQBT4WOw5hq-1">
          <mxGeometry relative="1" as="geometry" />
        </mxCell>
        <mxCell id="SvQYntT_slhw4JaxMj-Q-2" value="Controller.py" style="rounded=1;whiteSpace=wrap;html=1;fillColor=#d5e8d4;strokeColor=#82b366;" parent="1" vertex="1">
          <mxGeometry x="85" y="-75" width="80" height="40" as="geometry" />
        </mxCell>
        <mxCell id="SvQYntT_slhw4JaxMj-Q-10" style="edgeStyle=orthogonalEdgeStyle;rounded=0;orthogonalLoop=1;jettySize=auto;html=1;exitX=1;exitY=0.5;exitDx=0;exitDy=0;entryX=0;entryY=0.5;entryDx=0;entryDy=0;" parent="1" source="SvQYntT_slhw4JaxMj-Q-5" target="SvQYntT_slhw4JaxMj-Q-2" edge="1">
          <mxGeometry relative="1" as="geometry" />
        </mxCell>
        <mxCell id="SvQYntT_slhw4JaxMj-Q-5" value="/cmd" style="swimlane;whiteSpace=wrap;html=1;fillColor=#dae8fc;strokeColor=#6c8ebf;" parent="1" vertex="1">
          <mxGeometry x="-40" y="-80" width="80" height="50" as="geometry" />
        </mxCell>
        <mxCell id="SvQYntT_slhw4JaxMj-Q-6" value="Process" style="strokeWidth=2;html=1;shape=mxgraph.flowchart.start_1;whiteSpace=wrap;fillColor=#e1d5e7;strokeColor=#9673a6;" parent="1" vertex="1">
          <mxGeometry x="-385" y="-97.5" width="80" height="50" as="geometry" />
        </mxCell>
        <mxCell id="SvQYntT_slhw4JaxMj-Q-61" style="edgeStyle=orthogonalEdgeStyle;rounded=0;orthogonalLoop=1;jettySize=auto;html=1;exitX=1;exitY=0.5;exitDx=0;exitDy=0;exitPerimeter=0;entryX=0;entryY=0.5;entryDx=0;entryDy=0;" parent="1" source="SvQYntT_slhw4JaxMj-Q-7" target="SvQYntT_slhw4JaxMj-Q-5" edge="1">
          <mxGeometry relative="1" as="geometry" />
        </mxCell>
        <mxCell id="SvQYntT_slhw4JaxMj-Q-62" value="&quot;cmd&quot;" style="edgeLabel;html=1;align=center;verticalAlign=middle;resizable=0;points=[];" parent="SvQYntT_slhw4JaxMj-Q-61" vertex="1" connectable="0">
          <mxGeometry x="-0.1474" relative="1" as="geometry">
            <mxPoint as="offset" />
          </mxGeometry>
        </mxCell>
        <mxCell id="SvQYntT_slhw4JaxMj-Q-7" value="Start" style="strokeWidth=2;html=1;shape=mxgraph.flowchart.start_1;whiteSpace=wrap;fillColor=#e1d5e7;strokeColor=#9673a6;" parent="1" vertex="1">
          <mxGeometry x="-220" y="-80" width="80" height="50" as="geometry" />
        </mxCell>
        <mxCell id="SvQYntT_slhw4JaxMj-Q-21" style="edgeStyle=orthogonalEdgeStyle;rounded=0;orthogonalLoop=1;jettySize=auto;html=1;exitX=0.5;exitY=1;exitDx=0;exitDy=0;entryX=0.5;entryY=0;entryDx=0;entryDy=0;" parent="1" source="SvQYntT_slhw4JaxMj-Q-11" target="SvQYntT_slhw4JaxMj-Q-12" edge="1">
          <mxGeometry relative="1" as="geometry" />
        </mxCell>
        <mxCell id="SvQYntT_slhw4JaxMj-Q-11" value="/cmd_vel" style="swimlane;whiteSpace=wrap;html=1;fillColor=#dae8fc;strokeColor=#6c8ebf;" parent="1" vertex="1">
          <mxGeometry x="-40" y="35" width="80" height="50" as="geometry" />
        </mxCell>
        <mxCell id="SvQYntT_slhw4JaxMj-Q-71" style="edgeStyle=orthogonalEdgeStyle;rounded=0;orthogonalLoop=1;jettySize=auto;html=1;exitX=0.5;exitY=1;exitDx=0;exitDy=0;entryX=0.5;entryY=0;entryDx=0;entryDy=0;" parent="1" source="SvQYntT_slhw4JaxMj-Q-12" target="SvQYntT_slhw4JaxMj-Q-70" edge="1">
          <mxGeometry relative="1" as="geometry" />
        </mxCell>
        <mxCell id="SvQYntT_slhw4JaxMj-Q-12" value="Locomotion.py" style="rounded=1;whiteSpace=wrap;html=1;fillColor=#d5e8d4;strokeColor=#82b366;" parent="1" vertex="1">
          <mxGeometry x="-50" y="130" width="100" height="40" as="geometry" />
        </mxCell>
        <mxCell id="SvQYntT_slhw4JaxMj-Q-16" value="Node" style="rounded=1;whiteSpace=wrap;html=1;fillColor=#d5e8d4;strokeColor=#82b366;" parent="1" vertex="1">
          <mxGeometry x="-385" y="-17.5" width="80" height="40" as="geometry" />
        </mxCell>
        <mxCell id="SvQYntT_slhw4JaxMj-Q-17" value="/topic" style="swimlane;whiteSpace=wrap;html=1;fillColor=#dae8fc;strokeColor=#6c8ebf;" parent="1" vertex="1">
          <mxGeometry x="-385" y="52.5" width="80" height="50" as="geometry" />
        </mxCell>
        <mxCell id="SvQYntT_slhw4JaxMj-Q-51" style="edgeStyle=orthogonalEdgeStyle;rounded=0;orthogonalLoop=1;jettySize=auto;html=1;exitX=1;exitY=0.5;exitDx=0;exitDy=0;entryX=0;entryY=0.5;entryDx=0;entryDy=0;" parent="1" source="SvQYntT_slhw4JaxMj-Q-18" target="SvQYntT_slhw4JaxMj-Q-20" edge="1">
          <mxGeometry relative="1" as="geometry" />
        </mxCell>
        <mxCell id="SvQYntT_slhw4JaxMj-Q-18" value="/get_img" style="swimlane;whiteSpace=wrap;html=1;fillColor=#dae8fc;strokeColor=#6c8ebf;" parent="1" vertex="1">
          <mxGeometry x="85" y="-180" width="80" height="50" as="geometry" />
        </mxCell>
        <mxCell id="SvQYntT_slhw4JaxMj-Q-52" style="edgeStyle=orthogonalEdgeStyle;rounded=0;orthogonalLoop=1;jettySize=auto;html=1;exitX=1;exitY=0.5;exitDx=0;exitDy=0;entryX=0;entryY=0.5;entryDx=0;entryDy=0;" parent="1" source="SvQYntT_slhw4JaxMj-Q-20" target="SvQYntT_slhw4JaxMj-Q-25" edge="1">
          <mxGeometry relative="1" as="geometry" />
        </mxCell>
        <mxCell id="SvQYntT_slhw4JaxMj-Q-20" value="Camera.py" style="rounded=1;whiteSpace=wrap;html=1;fillColor=#d5e8d4;strokeColor=#82b366;" parent="1" vertex="1">
          <mxGeometry x="230" y="-175" width="80" height="40" as="geometry" />
        </mxCell>
        <mxCell id="SvQYntT_slhw4JaxMj-Q-53" style="edgeStyle=orthogonalEdgeStyle;rounded=0;orthogonalLoop=1;jettySize=auto;html=1;exitX=0.5;exitY=1;exitDx=0;exitDy=0;entryX=0.5;entryY=0;entryDx=0;entryDy=0;" parent="1" source="SvQYntT_slhw4JaxMj-Q-25" target="SvQYntT_slhw4JaxMj-Q-27" edge="1">
          <mxGeometry relative="1" as="geometry" />
        </mxCell>
        <mxCell id="SvQYntT_slhw4JaxMj-Q-25" value="/img_raw" style="swimlane;whiteSpace=wrap;html=1;startSize=23;fillColor=#dae8fc;strokeColor=#6c8ebf;" parent="1" vertex="1">
          <mxGeometry x="380" y="-180" width="80" height="50" as="geometry" />
        </mxCell>
        <mxCell id="SvQYntT_slhw4JaxMj-Q-54" style="edgeStyle=orthogonalEdgeStyle;rounded=0;orthogonalLoop=1;jettySize=auto;html=1;exitX=0;exitY=0.5;exitDx=0;exitDy=0;entryX=1;entryY=0.5;entryDx=0;entryDy=0;" parent="1" source="SvQYntT_slhw4JaxMj-Q-27" target="SvQYntT_slhw4JaxMj-Q-31" edge="1">
          <mxGeometry relative="1" as="geometry" />
        </mxCell>
        <mxCell id="SvQYntT_slhw4JaxMj-Q-27" value="Inference.py" style="rounded=1;whiteSpace=wrap;html=1;fillColor=#d5e8d4;strokeColor=#82b366;" parent="1" vertex="1">
          <mxGeometry x="380" y="-85" width="80" height="40" as="geometry" />
        </mxCell>
        <mxCell id="pFv_5wyaezQBT4WOw5hq-3" style="edgeStyle=orthogonalEdgeStyle;rounded=0;orthogonalLoop=1;jettySize=auto;html=1;exitX=0;exitY=0.5;exitDx=0;exitDy=0;entryX=1;entryY=0.25;entryDx=0;entryDy=0;" edge="1" parent="1" source="SvQYntT_slhw4JaxMj-Q-31" target="SvQYntT_slhw4JaxMj-Q-2">
          <mxGeometry relative="1" as="geometry" />
        </mxCell>
        <mxCell id="SvQYntT_slhw4JaxMj-Q-31" value="/keypoints" style="swimlane;whiteSpace=wrap;html=1;startSize=23;fillColor=#dae8fc;strokeColor=#6c8ebf;" parent="1" vertex="1">
          <mxGeometry x="220" y="-90" width="100" height="50" as="geometry" />
        </mxCell>
        <mxCell id="SvQYntT_slhw4JaxMj-Q-63" style="edgeStyle=orthogonalEdgeStyle;rounded=0;orthogonalLoop=1;jettySize=auto;html=1;exitX=0.5;exitY=1;exitDx=0;exitDy=0;entryX=0.5;entryY=0;entryDx=0;entryDy=0;" parent="1" source="SvQYntT_slhw4JaxMj-Q-56" target="SvQYntT_slhw4JaxMj-Q-58" edge="1">
          <mxGeometry relative="1" as="geometry" />
        </mxCell>
        <mxCell id="SvQYntT_slhw4JaxMj-Q-56" value="Homography.py" style="rounded=1;whiteSpace=wrap;html=1;fillColor=#d5e8d4;strokeColor=#82b366;" parent="1" vertex="1">
          <mxGeometry x="215" y="55" width="110" height="40" as="geometry" />
        </mxCell>
        <mxCell id="SvQYntT_slhw4JaxMj-Q-64" style="edgeStyle=orthogonalEdgeStyle;rounded=0;orthogonalLoop=1;jettySize=auto;html=1;exitX=0;exitY=0.5;exitDx=0;exitDy=0;entryX=0.5;entryY=1;entryDx=0;entryDy=0;" parent="1" source="SvQYntT_slhw4JaxMj-Q-58" edge="1">
          <mxGeometry relative="1" as="geometry">
            <mxPoint x="240" y="134.9999999999999" as="sourcePoint" />
            <mxPoint x="150" y="-35.000000000000114" as="targetPoint" />
          </mxGeometry>
        </mxCell>
        <mxCell id="SvQYntT_slhw4JaxMj-Q-65" value="(x, y)" style="edgeLabel;html=1;align=center;verticalAlign=middle;resizable=0;points=[];" parent="SvQYntT_slhw4JaxMj-Q-64" vertex="1" connectable="0">
          <mxGeometry x="-0.6588" y="1" relative="1" as="geometry">
            <mxPoint x="5" y="-1" as="offset" />
          </mxGeometry>
        </mxCell>
        <mxCell id="SvQYntT_slhw4JaxMj-Q-58" value="/cart_coords" style="swimlane;whiteSpace=wrap;html=1;fillColor=#dae8fc;strokeColor=#6c8ebf;" parent="1" vertex="1">
          <mxGeometry x="215" y="132.5" width="110" height="50" as="geometry" />
        </mxCell>
        <mxCell id="SvQYntT_slhw4JaxMj-Q-83" style="edgeStyle=orthogonalEdgeStyle;rounded=0;orthogonalLoop=1;jettySize=auto;html=1;exitX=1;exitY=0.5;exitDx=0;exitDy=0;entryX=0;entryY=0.5;entryDx=0;entryDy=0;" parent="1" source="SvQYntT_slhw4JaxMj-Q-66" target="SvQYntT_slhw4JaxMj-Q-72" edge="1">
          <mxGeometry relative="1" as="geometry" />
        </mxCell>
        <mxCell id="SvQYntT_slhw4JaxMj-Q-126" value="&quot;cmd&quot;" style="edgeLabel;html=1;align=center;verticalAlign=middle;resizable=0;points=[];" parent="SvQYntT_slhw4JaxMj-Q-83" vertex="1" connectable="0">
          <mxGeometry x="-0.12" y="-1" relative="1" as="geometry">
            <mxPoint as="offset" />
          </mxGeometry>
        </mxCell>
        <mxCell id="SvQYntT_slhw4JaxMj-Q-66" value="/cmd_cart" style="swimlane;whiteSpace=wrap;html=1;fillColor=#dae8fc;strokeColor=#6c8ebf;" parent="1" vertex="1">
          <mxGeometry x="230" y="210" width="80" height="50" as="geometry" />
        </mxCell>
        <mxCell id="SvQYntT_slhw4JaxMj-Q-69" value="Hardware" style="rhombus;whiteSpace=wrap;html=1;fillColor=#f8cecc;strokeColor=#b85450;" parent="1" vertex="1">
          <mxGeometry x="-390" y="132.5" width="90" height="60" as="geometry" />
        </mxCell>
        <mxCell id="SvQYntT_slhw4JaxMj-Q-70" value="Motors" style="rhombus;whiteSpace=wrap;html=1;fillColor=#f8cecc;strokeColor=#b85450;" parent="1" vertex="1">
          <mxGeometry x="-45" y="220" width="90" height="60" as="geometry" />
        </mxCell>
        <mxCell id="SvQYntT_slhw4JaxMj-Q-85" style="edgeStyle=orthogonalEdgeStyle;rounded=0;orthogonalLoop=1;jettySize=auto;html=1;exitX=0.5;exitY=1;exitDx=0;exitDy=0;entryX=1;entryY=0.5;entryDx=0;entryDy=0;" parent="1" source="SvQYntT_slhw4JaxMj-Q-72" target="SvQYntT_slhw4JaxMj-Q-84" edge="1">
          <mxGeometry relative="1" as="geometry" />
        </mxCell>
        <mxCell id="SvQYntT_slhw4JaxMj-Q-125" value="&quot;state&quot;" style="edgeLabel;html=1;align=center;verticalAlign=middle;resizable=0;points=[];" parent="SvQYntT_slhw4JaxMj-Q-85" vertex="1" connectable="0">
          <mxGeometry x="0.3918" y="-1" relative="1" as="geometry">
            <mxPoint as="offset" />
          </mxGeometry>
        </mxCell>
        <mxCell id="SvQYntT_slhw4JaxMj-Q-72" value="UART.py" style="rounded=1;whiteSpace=wrap;html=1;fillColor=#d5e8d4;strokeColor=#82b366;" parent="1" vertex="1">
          <mxGeometry x="365" y="215" width="110" height="40" as="geometry" />
        </mxCell>
        <mxCell id="SvQYntT_slhw4JaxMj-Q-96" style="edgeStyle=orthogonalEdgeStyle;rounded=0;orthogonalLoop=1;jettySize=auto;html=1;exitX=1;exitY=0.5;exitDx=0;exitDy=0;exitPerimeter=0;entryX=0;entryY=0.5;entryDx=0;entryDy=0;" parent="1" source="SvQYntT_slhw4JaxMj-Q-73" target="SvQYntT_slhw4JaxMj-Q-88" edge="1">
          <mxGeometry relative="1" as="geometry" />
        </mxCell>
        <mxCell id="SvQYntT_slhw4JaxMj-Q-121" value="&quot;cmd&quot;" style="edgeLabel;html=1;align=center;verticalAlign=middle;resizable=0;points=[];" parent="SvQYntT_slhw4JaxMj-Q-96" vertex="1" connectable="0">
          <mxGeometry x="-0.1492" y="-2" relative="1" as="geometry">
            <mxPoint as="offset" />
          </mxGeometry>
        </mxCell>
        <mxCell id="SvQYntT_slhw4JaxMj-Q-73" value="UART_Rx" style="strokeWidth=2;html=1;shape=mxgraph.flowchart.start_1;whiteSpace=wrap;fillColor=#e1d5e7;strokeColor=#9673a6;" parent="1" vertex="1">
          <mxGeometry x="660" y="170" width="80" height="50" as="geometry" />
        </mxCell>
        <mxCell id="SvQYntT_slhw4JaxMj-Q-75" style="edgeStyle=orthogonalEdgeStyle;rounded=0;orthogonalLoop=1;jettySize=auto;html=1;exitX=1;exitY=0.25;exitDx=0;exitDy=0;entryX=0;entryY=0.5;entryDx=0;entryDy=0;entryPerimeter=0;" parent="1" source="SvQYntT_slhw4JaxMj-Q-72" target="SvQYntT_slhw4JaxMj-Q-73" edge="1">
          <mxGeometry relative="1" as="geometry" />
        </mxCell>
        <mxCell id="SvQYntT_slhw4JaxMj-Q-124" value="&quot;cmd&quot;" style="edgeLabel;html=1;align=center;verticalAlign=middle;resizable=0;points=[];" parent="SvQYntT_slhw4JaxMj-Q-75" vertex="1" connectable="0">
          <mxGeometry x="0.5854" y="-1" relative="1" as="geometry">
            <mxPoint x="5" y="-1" as="offset" />
          </mxGeometry>
        </mxCell>
        <mxCell id="SvQYntT_slhw4JaxMj-Q-78" style="edgeStyle=orthogonalEdgeStyle;rounded=0;orthogonalLoop=1;jettySize=auto;html=1;exitX=0;exitY=0.5;exitDx=0;exitDy=0;exitPerimeter=0;entryX=1;entryY=0.75;entryDx=0;entryDy=0;" parent="1" source="SvQYntT_slhw4JaxMj-Q-76" target="SvQYntT_slhw4JaxMj-Q-72" edge="1">
          <mxGeometry relative="1" as="geometry" />
        </mxCell>
        <mxCell id="SvQYntT_slhw4JaxMj-Q-123" value="&quot;state&quot;" style="edgeLabel;html=1;align=center;verticalAlign=middle;resizable=0;points=[];" parent="SvQYntT_slhw4JaxMj-Q-78" vertex="1" connectable="0">
          <mxGeometry x="-0.6814" y="2" relative="1" as="geometry">
            <mxPoint x="-5" y="-2" as="offset" />
          </mxGeometry>
        </mxCell>
        <mxCell id="SvQYntT_slhw4JaxMj-Q-76" value="UART_Tx" style="strokeWidth=2;html=1;shape=mxgraph.flowchart.start_1;whiteSpace=wrap;fillColor=#e1d5e7;strokeColor=#9673a6;" parent="1" vertex="1">
          <mxGeometry x="660" y="255" width="80" height="50" as="geometry" />
        </mxCell>
        <mxCell id="SvQYntT_slhw4JaxMj-Q-79" style="edgeStyle=orthogonalEdgeStyle;rounded=0;orthogonalLoop=1;jettySize=auto;html=1;exitX=0.5;exitY=1;exitDx=0;exitDy=0;exitPerimeter=0;entryX=0.5;entryY=0;entryDx=0;entryDy=0;entryPerimeter=0;" parent="1" source="SvQYntT_slhw4JaxMj-Q-73" target="SvQYntT_slhw4JaxMj-Q-76" edge="1">
          <mxGeometry relative="1" as="geometry" />
        </mxCell>
        <mxCell id="SvQYntT_slhw4JaxMj-Q-80" value="&quot;ack&quot;" style="edgeLabel;html=1;align=center;verticalAlign=middle;resizable=0;points=[];" parent="SvQYntT_slhw4JaxMj-Q-79" vertex="1" connectable="0">
          <mxGeometry x="-0.2857" relative="1" as="geometry">
            <mxPoint as="offset" />
          </mxGeometry>
        </mxCell>
        <mxCell id="SvQYntT_slhw4JaxMj-Q-81" value="Module" style="rounded=1;whiteSpace=wrap;html=1;fillColor=#d5e8d4;strokeColor=#82b366;" parent="1" vertex="1">
          <mxGeometry x="665" y="-100" width="80" height="40" as="geometry" />
        </mxCell>
        <mxCell id="SvQYntT_slhw4JaxMj-Q-119" style="edgeStyle=orthogonalEdgeStyle;rounded=0;orthogonalLoop=1;jettySize=auto;html=1;exitX=1;exitY=0.5;exitDx=0;exitDy=0;exitPerimeter=0;entryX=0;entryY=0.5;entryDx=0;entryDy=0;" parent="1" source="SvQYntT_slhw4JaxMj-Q-82" target="SvQYntT_slhw4JaxMj-Q-97" edge="1">
          <mxGeometry relative="1" as="geometry" />
        </mxCell>
        <mxCell id="SvQYntT_slhw4JaxMj-Q-82" value="Move" style="strokeWidth=2;html=1;shape=mxgraph.flowchart.start_1;whiteSpace=wrap;fillColor=#e1d5e7;strokeColor=#9673a6;" parent="1" vertex="1">
          <mxGeometry x="1150" y="170" width="80" height="50" as="geometry" />
        </mxCell>
        <mxCell id="SvQYntT_slhw4JaxMj-Q-84" value="/cart_state" style="swimlane;whiteSpace=wrap;html=1;fillColor=#dae8fc;strokeColor=#6c8ebf;" parent="1" vertex="1">
          <mxGeometry x="230" y="310" width="80" height="50" as="geometry" />
        </mxCell>
        <mxCell id="SvQYntT_slhw4JaxMj-Q-86" style="edgeStyle=orthogonalEdgeStyle;rounded=0;orthogonalLoop=1;jettySize=auto;html=1;exitX=0;exitY=0.5;exitDx=0;exitDy=0;entryX=0.385;entryY=1.063;entryDx=0;entryDy=0;entryPerimeter=0;" parent="1" source="SvQYntT_slhw4JaxMj-Q-84" target="SvQYntT_slhw4JaxMj-Q-2" edge="1">
          <mxGeometry relative="1" as="geometry">
            <Array as="points">
              <mxPoint x="230" y="330" />
              <mxPoint x="116" y="330" />
            </Array>
          </mxGeometry>
        </mxCell>
        <mxCell id="SvQYntT_slhw4JaxMj-Q-87" value="&quot;state&quot;" style="edgeLabel;html=1;align=center;verticalAlign=middle;resizable=0;points=[];" parent="SvQYntT_slhw4JaxMj-Q-86" vertex="1" connectable="0">
          <mxGeometry x="-0.7578" y="3" relative="1" as="geometry">
            <mxPoint as="offset" />
          </mxGeometry>
        </mxCell>
        <mxCell id="SvQYntT_slhw4JaxMj-Q-93" style="edgeStyle=orthogonalEdgeStyle;rounded=0;orthogonalLoop=1;jettySize=auto;html=1;exitX=1;exitY=0.75;exitDx=0;exitDy=0;entryX=0;entryY=0.75;entryDx=0;entryDy=0;" parent="1" source="SvQYntT_slhw4JaxMj-Q-88" target="SvQYntT_slhw4JaxMj-Q-90" edge="1">
          <mxGeometry relative="1" as="geometry" />
        </mxCell>
        <mxCell id="SvQYntT_slhw4JaxMj-Q-95" value="&quot;cmd&quot;" style="edgeLabel;html=1;align=center;verticalAlign=middle;resizable=0;points=[];" parent="SvQYntT_slhw4JaxMj-Q-93" vertex="1" connectable="0">
          <mxGeometry x="-0.0333" y="-2" relative="1" as="geometry">
            <mxPoint as="offset" />
          </mxGeometry>
        </mxCell>
        <mxCell id="SvQYntT_slhw4JaxMj-Q-112" style="edgeStyle=orthogonalEdgeStyle;rounded=0;orthogonalLoop=1;jettySize=auto;html=1;exitX=0.5;exitY=1;exitDx=0;exitDy=0;entryX=0;entryY=0.75;entryDx=0;entryDy=0;" parent="1" source="SvQYntT_slhw4JaxMj-Q-88" target="SvQYntT_slhw4JaxMj-Q-107" edge="1">
          <mxGeometry relative="1" as="geometry" />
        </mxCell>
        <mxCell id="SvQYntT_slhw4JaxMj-Q-113" value="&quot;state&quot;" style="edgeLabel;html=1;align=center;verticalAlign=middle;resizable=0;points=[];" parent="SvQYntT_slhw4JaxMj-Q-112" vertex="1" connectable="0">
          <mxGeometry x="0.3725" y="1" relative="1" as="geometry">
            <mxPoint as="offset" />
          </mxGeometry>
        </mxCell>
        <mxCell id="SvQYntT_slhw4JaxMj-Q-88" value="State Machine" style="rounded=1;whiteSpace=wrap;html=1;fillColor=#d5e8d4;strokeColor=#82b366;" parent="1" vertex="1">
          <mxGeometry x="830" y="175" width="80" height="40" as="geometry" />
        </mxCell>
        <mxCell id="SvQYntT_slhw4JaxMj-Q-92" style="edgeStyle=orthogonalEdgeStyle;rounded=0;orthogonalLoop=1;jettySize=auto;html=1;exitX=0;exitY=0.25;exitDx=0;exitDy=0;entryX=1;entryY=0.25;entryDx=0;entryDy=0;" parent="1" source="SvQYntT_slhw4JaxMj-Q-90" target="SvQYntT_slhw4JaxMj-Q-88" edge="1">
          <mxGeometry relative="1" as="geometry" />
        </mxCell>
        <mxCell id="SvQYntT_slhw4JaxMj-Q-94" value="&quot;state&quot;" style="edgeLabel;html=1;align=center;verticalAlign=middle;resizable=0;points=[];" parent="SvQYntT_slhw4JaxMj-Q-92" vertex="1" connectable="0">
          <mxGeometry x="0.05" y="-2" relative="1" as="geometry">
            <mxPoint as="offset" />
          </mxGeometry>
        </mxCell>
        <mxCell id="SvQYntT_slhw4JaxMj-Q-90" value="Motor_HAL" style="rounded=1;whiteSpace=wrap;html=1;fillColor=#d5e8d4;strokeColor=#82b366;" parent="1" vertex="1">
          <mxGeometry x="1010" y="175" width="80" height="40" as="geometry" />
        </mxCell>
        <mxCell id="SvQYntT_slhw4JaxMj-Q-97" value="Motors" style="rhombus;whiteSpace=wrap;html=1;fillColor=#f8cecc;strokeColor=#b85450;" parent="1" vertex="1">
          <mxGeometry x="1260" y="165" width="90" height="60" as="geometry" />
        </mxCell>
        <mxCell id="SvQYntT_slhw4JaxMj-Q-108" style="edgeStyle=orthogonalEdgeStyle;rounded=0;orthogonalLoop=1;jettySize=auto;html=1;exitX=0;exitY=0.5;exitDx=0;exitDy=0;entryX=0.5;entryY=0;entryDx=0;entryDy=0;" parent="1" source="SvQYntT_slhw4JaxMj-Q-99" target="SvQYntT_slhw4JaxMj-Q-88" edge="1">
          <mxGeometry relative="1" as="geometry" />
        </mxCell>
        <mxCell id="SvQYntT_slhw4JaxMj-Q-109" value="&quot;state&quot;" style="edgeLabel;html=1;align=center;verticalAlign=middle;resizable=0;points=[];" parent="SvQYntT_slhw4JaxMj-Q-108" vertex="1" connectable="0">
          <mxGeometry x="-0.3823" y="1" relative="1" as="geometry">
            <mxPoint as="offset" />
          </mxGeometry>
        </mxCell>
        <mxCell id="SvQYntT_slhw4JaxMj-Q-99" value="Limit_HAL" style="rounded=1;whiteSpace=wrap;html=1;fillColor=#d5e8d4;strokeColor=#82b366;" parent="1" vertex="1">
          <mxGeometry x="1010" y="85" width="80" height="40" as="geometry" />
        </mxCell>
        <mxCell id="SvQYntT_slhw4JaxMj-Q-106" style="edgeStyle=orthogonalEdgeStyle;rounded=0;orthogonalLoop=1;jettySize=auto;html=1;exitX=0;exitY=0.5;exitDx=0;exitDy=0;entryX=1;entryY=0.5;entryDx=0;entryDy=0;" parent="1" source="SvQYntT_slhw4JaxMj-Q-103" target="SvQYntT_slhw4JaxMj-Q-99" edge="1">
          <mxGeometry relative="1" as="geometry" />
        </mxCell>
        <mxCell id="SvQYntT_slhw4JaxMj-Q-103" value="Switches" style="rhombus;whiteSpace=wrap;html=1;fillColor=#f8cecc;strokeColor=#b85450;" parent="1" vertex="1">
          <mxGeometry x="1150" y="75" width="90" height="60" as="geometry" />
        </mxCell>
        <mxCell id="SvQYntT_slhw4JaxMj-Q-104" value="Hardware" style="rhombus;whiteSpace=wrap;html=1;fillColor=#f8cecc;strokeColor=#b85450;" parent="1" vertex="1">
          <mxGeometry x="660" y="35" width="90" height="60" as="geometry" />
        </mxCell>
        <mxCell id="SvQYntT_slhw4JaxMj-Q-110" style="edgeStyle=orthogonalEdgeStyle;rounded=0;orthogonalLoop=1;jettySize=auto;html=1;exitX=0;exitY=0.25;exitDx=0;exitDy=0;entryX=0.75;entryY=1;entryDx=0;entryDy=0;" parent="1" source="SvQYntT_slhw4JaxMj-Q-107" target="SvQYntT_slhw4JaxMj-Q-88" edge="1">
          <mxGeometry relative="1" as="geometry" />
        </mxCell>
        <mxCell id="SvQYntT_slhw4JaxMj-Q-111" value="&quot;cmd&quot;" style="edgeLabel;html=1;align=center;verticalAlign=middle;resizable=0;points=[];" parent="SvQYntT_slhw4JaxMj-Q-110" vertex="1" connectable="0">
          <mxGeometry x="-0.2407" relative="1" as="geometry">
            <mxPoint as="offset" />
          </mxGeometry>
        </mxCell>
        <mxCell id="SvQYntT_slhw4JaxMj-Q-115" style="edgeStyle=orthogonalEdgeStyle;rounded=0;orthogonalLoop=1;jettySize=auto;html=1;exitX=1;exitY=0.5;exitDx=0;exitDy=0;entryX=0;entryY=0.5;entryDx=0;entryDy=0;" parent="1" source="SvQYntT_slhw4JaxMj-Q-107" target="SvQYntT_slhw4JaxMj-Q-114" edge="1">
          <mxGeometry relative="1" as="geometry" />
        </mxCell>
        <mxCell id="SvQYntT_slhw4JaxMj-Q-107" value="HMI_HAL" style="rounded=1;whiteSpace=wrap;html=1;fillColor=#d5e8d4;strokeColor=#82b366;" parent="1" vertex="1">
          <mxGeometry x="1010" y="265" width="80" height="40" as="geometry" />
        </mxCell>
        <mxCell id="SvQYntT_slhw4JaxMj-Q-116" style="edgeStyle=orthogonalEdgeStyle;rounded=0;orthogonalLoop=1;jettySize=auto;html=1;exitX=0;exitY=0.5;exitDx=0;exitDy=0;entryX=1;entryY=0.5;entryDx=0;entryDy=0;" parent="1" source="SvQYntT_slhw4JaxMj-Q-114" target="SvQYntT_slhw4JaxMj-Q-107" edge="1">
          <mxGeometry relative="1" as="geometry" />
        </mxCell>
        <mxCell id="SvQYntT_slhw4JaxMj-Q-114" value="HMI" style="rhombus;whiteSpace=wrap;html=1;fillColor=#f8cecc;strokeColor=#b85450;" parent="1" vertex="1">
          <mxGeometry x="1150" y="255" width="90" height="60" as="geometry" />
        </mxCell>
        <mxCell id="SvQYntT_slhw4JaxMj-Q-117" value="Process" style="strokeWidth=2;html=1;shape=mxgraph.flowchart.start_1;whiteSpace=wrap;fillColor=#e1d5e7;strokeColor=#9673a6;" parent="1" vertex="1">
          <mxGeometry x="665" y="-35" width="80" height="50" as="geometry" />
        </mxCell>
        <mxCell id="SvQYntT_slhw4JaxMj-Q-118" style="edgeStyle=orthogonalEdgeStyle;rounded=0;orthogonalLoop=1;jettySize=auto;html=1;exitX=1;exitY=0.5;exitDx=0;exitDy=0;entryX=0;entryY=0.5;entryDx=0;entryDy=0;entryPerimeter=0;" parent="1" source="SvQYntT_slhw4JaxMj-Q-90" target="SvQYntT_slhw4JaxMj-Q-82" edge="1">
          <mxGeometry relative="1" as="geometry" />
        </mxCell>
        <mxCell id="SvQYntT_slhw4JaxMj-Q-120" style="edgeStyle=orthogonalEdgeStyle;rounded=0;orthogonalLoop=1;jettySize=auto;html=1;exitX=0.25;exitY=1;exitDx=0;exitDy=0;entryX=1;entryY=0.5;entryDx=0;entryDy=0;entryPerimeter=0;" parent="1" source="SvQYntT_slhw4JaxMj-Q-88" target="SvQYntT_slhw4JaxMj-Q-76" edge="1">
          <mxGeometry relative="1" as="geometry" />
        </mxCell>
        <mxCell id="SvQYntT_slhw4JaxMj-Q-122" value="&quot;state&quot;" style="edgeLabel;html=1;align=center;verticalAlign=middle;resizable=0;points=[];" parent="SvQYntT_slhw4JaxMj-Q-120" vertex="1" connectable="0">
          <mxGeometry x="0.3994" y="-1" relative="1" as="geometry">
            <mxPoint as="offset" />
          </mxGeometry>
        </mxCell>
        <mxCell id="SvQYntT_slhw4JaxMj-Q-127" value="&lt;font size=&quot;1&quot; style=&quot;&quot;&gt;&lt;b style=&quot;&quot;&gt;&lt;span style=&quot;font-size: 16px;&quot;&gt;Legend&lt;/span&gt;&lt;/b&gt;&lt;/font&gt;" style="text;html=1;align=center;verticalAlign=middle;resizable=0;points=[];autosize=1;strokeColor=none;fillColor=none;" parent="1" vertex="1">
          <mxGeometry x="640" y="-145" width="80" height="30" as="geometry" />
        </mxCell>
        <mxCell id="SvQYntT_slhw4JaxMj-Q-133" value="&lt;b&gt;&lt;u&gt;&lt;font style=&quot;font-size: 32px;&quot;&gt;RaspberryPi&lt;/font&gt;&lt;/u&gt;&lt;/b&gt;" style="text;html=1;strokeColor=none;fillColor=none;align=center;verticalAlign=middle;whiteSpace=wrap;rounded=0;" parent="1" vertex="1">
          <mxGeometry x="-110" y="-270" width="220" height="50" as="geometry" />
        </mxCell>
        <mxCell id="SvQYntT_slhw4JaxMj-Q-138" value="" style="rounded=1;whiteSpace=wrap;html=1;absoluteArcSize=1;arcSize=14;strokeWidth=2;fillColor=none;dashed=1;" parent="1" vertex="1">
          <mxGeometry x="510" y="-300" width="880" height="702.5" as="geometry" />
        </mxCell>
        <mxCell id="SvQYntT_slhw4JaxMj-Q-139" value="&lt;b&gt;&lt;u&gt;&lt;font style=&quot;font-size: 32px;&quot;&gt;Nucleo&lt;/font&gt;&lt;/u&gt;&lt;/b&gt;" style="text;html=1;strokeColor=none;fillColor=none;align=center;verticalAlign=middle;whiteSpace=wrap;rounded=0;" parent="1" vertex="1">
          <mxGeometry x="850" y="-270" width="220" height="50" as="geometry" />
        </mxCell>
        <mxCell id="pFv_5wyaezQBT4WOw5hq-6" style="edgeStyle=orthogonalEdgeStyle;rounded=0;orthogonalLoop=1;jettySize=auto;html=1;exitX=0.5;exitY=1;exitDx=0;exitDy=0;entryX=0.5;entryY=0;entryDx=0;entryDy=0;" edge="1" parent="1" source="pFv_5wyaezQBT4WOw5hq-1" target="SvQYntT_slhw4JaxMj-Q-56">
          <mxGeometry relative="1" as="geometry" />
        </mxCell>
        <mxCell id="pFv_5wyaezQBT4WOw5hq-1" value="/pixel_coords" style="swimlane;whiteSpace=wrap;html=1;startSize=23;fillColor=#dae8fc;strokeColor=#6c8ebf;" vertex="1" parent="1">
          <mxGeometry x="220" y="-17.5" width="100" height="50" as="geometry" />
        </mxCell>
      </root>
    </mxGraphModel>
  </diagram>
</mxfile>
